<?xml version="1.0" encoding="UTF-8" standalone="no"?>
<!-- Created with Inkscape (http://www.inkscape.org/) -->

<svg
   version="1.1"
   id="svg1"
   width="48"
   height="48"
   viewBox="0 0 48 48"
   xml:space="preserve"
   xmlns="http://www.w3.org/2000/svg"
   xmlns:svg="http://www.w3.org/2000/svg"><defs
     id="defs1" /><g
     id="g1"
     transform="translate(1.3905,3.734375)"
     style="fill:#e2ba3d;fill-opacity:1"><path
       id="path1"
       style="display:inline;fill:#e2ba3d;fill-opacity:1;stroke-width:1.03246"
       d="M 28.050781,4.1640625 C 19.29073,4.1640322 12.189308,7.1808903 12.189453,10.902344 V 17.125 c -6.5924165,0.886972 -8.505985,3.486131 -8.5058592,6.423828 l 0.00195,9.728516 c -1.442e-4,3.721453 7.1012772,6.738311 15.8613282,6.738281 8.760051,3e-5 15.861472,-3.016828 15.861328,-6.738281 v -6.052735 c 6.592416,-0.886972 8.504032,-3.486131 8.503906,-6.423828 V 10.902344 C 43.912254,7.1808903 36.810832,4.1640322 28.050781,4.1640625 Z M 13.048828,23.746094 c 2.165326,2.737418 8.212783,4.582085 15.021484,4.582031 0.729088,4.59e-4 0.816882,-0.02042 1.539188,-0.0625 V 30.1875 c 0,1.863961 -4.505135,3.375 -10.0625,3.375 -5.557365,0 -10.0625,-1.511039 -10.0625,-3.375 V 26.125 c 0,-0.927972 1.757165,-1.768785 3.564328,-2.378906 z" /></g></svg>
